Coordinates
version=1
nRows=13
nColumns=36
inDegrees=yes

Units are S.I. units (second, meters, Newtons, ...)
If the header above contains a line with 'inDegrees', this indicates whether rotational values are in degrees (yes) or radians (no).

endheader
time	pelvis_tilt	pelvis_list	pelvis_rotation	pelvis_tx	pelvis_ty	pelvis_tz	hip_flexion_r	hip_adduction_r	hip_rotation_r	knee_angle_r	knee_angle_r_beta	ankle_angle_r	subtalar_angle_r	mtp_angle_r	hip_flexion_l	hip_adduction_l	hip_rotation_l	knee_angle_l	knee_angle_l_beta	ankle_angle_l	subtalar_angle_l	mtp_angle_l	lumbar_extension	lumbar_bending	lumbar_rotation	arm_flex_r	arm_add_r	arm_rot_r	elbow_flex_r	pro_sup_r	arm_flex_l	arm_add_l	arm_rot_l	elbow_flex_l	pro_sup_l
      3.50000000	      4.94432970	     -2.98768563	     -4.76476096	      0.28786230	      0.94118952	     -0.18419370	     26.09445894	     -6.62867940	      2.29527380	     21.78905034	      0.38029067	      3.61601245	      1.06655816	     -7.49999987	      3.67648530	      3.33696820	      9.49751980	     21.35659263	      0.37274286	     25.45092332	      3.63195109	     -7.49999987	    -16.56098431	     -2.13439158	     -0.55354926	     26.90960652	     -1.79634887	     45.58323655	    127.14613603	     88.00773134	     28.70020532	    -13.07829464	     65.14812907	    132.03631844	     79.53179683
      3.51666670	      4.77934767	     -2.79354188	     -4.56084366	      0.28815561	      0.94063172	     -0.18426802	     25.97294393	     -6.81267282	      2.32972289	     21.11029724	      0.36844419	      3.69006013	      1.40194238	     -7.49999987	      3.96282720	      3.54580303	      9.63830585	     21.54927362	      0.37610578	     25.52780615	      3.73174527	     -7.49999987	    -16.73404268	     -2.21294131	     -0.58638093	     27.06720631	     -2.29993049	     46.28086356	    127.85501295	     87.33050134	     28.88219624	    -13.41662478	     64.43462655	    131.98158223	     78.73798297
      3.53333330	      4.52001031	     -2.62797162	     -4.49470454	      0.28937950	      0.92883279	     -0.18346917	     26.66623120	     -6.88679224	      2.60448362	     21.43766189	      0.37415778	      4.02101076	      1.32658633	     -7.49999987	      4.56488132	      3.74217368	      9.58359643	     22.15766733	      0.38672425	     26.07658508	      3.86542978	     -7.49999987	    -16.41350545	     -2.37873301	     -0.29471800	     27.13748377	     -2.59291235	     46.21296971	    129.45611966	     87.44251879	     29.13226844	    -13.56673863	     61.94041172	    132.32583475	     78.61574607
      3.55000000	      4.27883796	     -2.44478889	     -4.39013528	      0.28816597	      0.93511473	     -0.18400929	     27.15092657	     -6.99191727	      2.75076610	     21.53733276	      0.37589737	      4.20516999	      1.21992299	     -7.49999987	      4.99686071	      3.91082330	      9.50281417	     22.50287263	      0.39274922	     26.24280087	      3.94431191	     -7.49999987	    -16.07995980	     -2.38090002	     -1.06420870	     26.36533464	     -2.65389241	     46.05673939	    129.09720261	     85.81256050	     27.91846247	    -14.67700561	     54.77628831	    130.30359124	     76.74606195
      3.56666670	      4.24606908	     -2.34920339	     -4.31162767	      0.28843688	      0.94135110	     -0.18374166	     26.99491014	     -7.01275248	      2.60140397	     21.07419895	      0.36781416	      3.93444403	      1.13122017	     -7.49999987	      4.93143360	      4.01216958	      9.55842324	     22.42044533	      0.39131059	     25.97075830	      3.75799105	     -7.49999987	    -16.33447344	     -2.43092469	     -0.70423483	     25.98801897	     -3.00071164	     45.92446597	    129.36174063	     86.12035171	     27.69902394	    -15.26751095	     50.31020205	    128.40100312	     76.51964687
      3.58333330	      3.87972250	     -2.16167786	     -4.09763082	      0.28810632	      0.93777420	     -0.18389582	     27.29377662	     -7.17538399	      2.41898024	     20.74418482	      0.36205433	      3.47628038	      1.20072558	     -7.49999987	      5.25725485	      4.15455916	      9.62209929	     22.31850547	      0.38953140	     25.81515701	      3.74931434	     -7.49999987	    -16.04557036	     -2.56375749	     -0.48149039	     26.21833272	     -2.97899797	     46.09295257	    129.34557839	     85.59219115	     27.77695304	    -15.20705603	     49.09291126	    128.01797851	     75.97526824
      3.60000000	      3.98889551	     -2.21838181	     -3.85340696	      0.28841318	      0.93777418	     -0.18369525	     27.04118016	     -7.15930595	      2.15371649	     20.39126190	      0.35589466	      3.35316815	      1.32276147	     -7.49999987	      4.92862486	      4.09383564	      9.86271298	     22.14520038	      0.38650666	     25.93401215	      3.79803948	     -7.49999987	    -16.29285573	     -2.20392474	     -1.23270398	     26.99981154	     -2.59515192	     47.18115398	    128.64534775	     89.00599966	     26.79901132	    -15.25230730	     49.38235456	    128.72786393	     78.51189173
      3.61666670	      3.75313540	     -2.26629391	     -3.78503016	      0.28871509	      0.93458219	     -0.18381936	     27.41180477	     -7.08065258	      2.04906433	     20.28643175	      0.35406503	      3.42998328	      1.36942499	     -7.49999987	      5.31119116	      4.04562976	      9.95134072	     22.52787506	      0.39318559	     26.21340463	      3.82604300	     -7.49999987	    -16.13179542	     -2.02990320	     -1.13319042	     27.47720525	     -2.45178666	     47.56083855	    128.65231485	     88.91370794	     26.68361080	    -14.80540192	     52.74372728	    130.23848015	     78.82088418
      3.63333330	      3.79364627	     -2.30658706	     -3.70093272	      0.28855570	      0.93714529	     -0.18359382	     27.38010192	     -7.01598942	      2.00554819	     20.17761599	      0.35216583	      3.51741625	      1.58483210	     -7.49999987	      5.32420278	      4.01428973	     10.13384339	     22.75431561	      0.39713773	     26.41922758	      3.76206067	     -7.49999987	    -16.25441771	     -2.12000426	     -0.30174128	     27.16979518	     -2.82874664	     46.68473720	    128.62470045	     89.28109661	     27.08287064	    -14.48774533	     56.24021299	    129.71784347	     80.74121294
      3.65000000	      3.44620856	     -2.33166562	     -3.60259687	      0.28985082	      0.92777017	     -0.18312146	     28.15594515	     -6.93166818	      2.19979343	     20.43208744	      0.35660720	      3.78193495	      1.83470115	     -7.49999987	      6.23305681	      4.03510194	     10.26600796	     23.77006631	      0.41486592	     27.05776662	      3.78242265	     -7.49999987	    -15.90275218	     -2.03438891	     -0.75451727	     26.96614444	     -2.61958401	     46.83604236	    129.38846385	     86.60727565	     26.59059098	    -14.70081596	     57.41919648	    130.47323531	     79.12282260
      3.66666670	      3.38184963	     -2.30315775	     -3.61656215	      0.28847603	      0.92804653	     -0.18319364	     28.81850006	     -6.89835802	      2.30357448	     20.90162723	      0.36480221	      4.03747414	      2.09890746	     -7.49999987	      7.28049160	      4.23467546	     10.33067936	     25.47240506	      0.44457734	     27.80798508	      3.50806505	     -7.49999987	    -16.06036751	     -2.14905133	     -0.14311511	     26.80409304	     -2.93163876	     46.95392438	    130.77002220	     89.63984241	     27.24804759	    -14.25692059	     58.02470680	    130.21889277	     83.73571820
      3.68333330	      3.24516093	     -2.11690303	     -3.49971123	      0.27981153	      0.92071923	     -0.18088185	     29.98392492	     -7.04368000	      2.50380110	     21.53695278	      0.37589074	      4.28707237	      2.53545560	     -7.49999987	      8.93462145	      4.61028197	     10.29509733	     27.67503862	      0.48302054	     28.99464642	      3.42691543	     -7.49999987	    -16.35860504	     -2.43227902	     -0.09915800	     28.02617353	     -2.54089051	     47.14037785	    130.71509078	     88.44268484	     28.21199191	    -14.09508972	     59.59182463	    131.59837578	     82.95725004
      3.70000000	      3.46755200	     -1.71401634	     -3.12058609	      0.27797538	      0.92186068	     -0.18121910	     30.92680808	     -7.52700382	      2.58292949	     21.99900204	      0.38395502	      4.33073317	      2.98921202	     -7.49999987	     10.40654400	      5.31660269	     10.35196746	     30.01080360	      0.52378733	     30.11691171	      3.33034115	     -7.49999987	    -17.23577556	     -3.11049267	     -0.11059619	     29.07087450	     -2.63777231	     47.48984873	    130.78239380	     88.60404533	     29.34377831	    -13.74641432	     61.46998499	    132.04116788	     83.30465636
